<svg xmlns="http://www.w3.org/2000/svg" xmlns:xlink="http://www.w3.org/1999/xlink" width="500.0" height="150.0" viewBox="0 0 500.0 150.0">
  <!-- SPDX-License-Identifier: Apache-2.0 -->
  <defs>
    <clipPath id="logo_clip">
      <rect width="500.0" height="150.0"/>
    </clipPath>
  </defs>
  <g id="Solicitor_Logo" data-name="Solicitor_Logo" clip-path="url(#logo_clip)">
    <rect width="500.0" height="150.0" fill="none"/>
    <g id="All" data-name="all" transform="scale(0.1)">
      <g id="Text" data-name="text" transform="translate(0 0)">
        <text id="Soli" transform="translate(290 1058)" fill="#66f6ff" stroke="#000000" stroke-width="0" font-size="1000" font-family="Ubuntu-Bold, Ubuntu" font-weight="700"><tspan x="0" y="0">Soli</tspan></text>
        <text id="itor" transform="translate(2978 1058)" fill="#66f6ff" stroke="#000000" stroke-width="0" font-size="1000" font-family="Ubuntu-Bold, Ubuntu" font-weight="700"><tspan x="0" y="0">itor</tspan></text>
        <text id="c" transform="translate(2232 1058)" fill="#66f6ff" stroke="#000000" stroke-width="0" font-size="1000" font-family="Ubuntu-Bold, Ubuntu" font-weight="700"><tspan x="0" y="0">c</tspan></text>
      </g>
      <g id="MG" data-name="mg" transform="translate(0,0)">
        <g id="MG_HOLDER" data-name="mg_holder" transform="translate(157.774 -1634.458) rotate(43)">
          <path id="Rectangle" d="M1.564,0H278.436A1.384,1.384,0,0,1,280,1.342V78.658A1.384,1.384,0,0,1,278.436,80H1.564A1.384,1.384,0,0,1,0,78.658V1.342A1.384,1.384,0,0,1,1.564,0Z" transform="translate(3250 525)" fill="#fd7700" fill-opacity="1" fill-rule="evenodd"/>
          <path id="Rectangle_00000040550280197831414570000004942960038848365709_" d="M3.671,0H117.952c2.08,0,3.671,2.1,3.671,4.857V457.9c0,2.753-1.591,4.857-3.671,4.857H3.671c-2.08,0-3.671-2.1-3.671-4.857V4.857C0,2.267,1.591,0,3.671,0Z" transform="translate(3330 537)" fill="#fd7700" fill-opacity="1" fill-rule="evenodd"/>
        </g>
        <g id="MG_GLASS" data-name="mg_glass" transform="translate(-200 -1433)">
          <path id="Oval" d="M585.776,156A376.052,376.052,0,0,1,852.288,265.94c68,67.842,110.264,161.591,110.264,265.055a372.137,372.137,0,0,1-66.223,212.432,377.834,377.834,0,0,1-577.065,52.784C251.26,728.369,209,634.62,209,531.157A376.192,376.192,0,0,1,585.776,156Z" transform="translate(2159.5 1698.587)" fill="none" stroke="#fd7700" stroke-width="120"/>
        </g>
      </g>
    </g>
  </g>
</svg>
